HIERARCHY
ROOT Hips
{
	OFFSET 0.000000 0.000000 0.000000
	CHANNELS 6 Xposition Yposition Zposition Xrotation Yrotation Zrotation
	JOINT LeftUpLeg_virtual
	{
		OFFSET 0.000000 0.000000 0.000000
		CHANNELS 3 Xrotation Yrotation Zrotation
		JOINT LeftUpLeg
		{
			OFFSET 15.427100 -6.655098 0.678600
			CHANNELS 3 Xrotation Yrotation Zrotation
			JOINT LeftLeg
			{
				OFFSET 4.081073 -39.591068 13.024000
				CHANNELS 3 Xrotation Yrotation Zrotation
				JOINT LeftFoot
				{
					OFFSET -4.081074 -37.707932 -15.979700
					CHANNELS 3 Xrotation Yrotation Zrotation
					JOINT LeftToeBase
					{
						OFFSET 5.346399 -15.068900 20.645000
						CHANNELS 3 Xrotation Yrotation Zrotation
						JOINT LeftToe_End
						{
							OFFSET 2.754700 0.931300 11.300900
							CHANNELS 3 Xrotation Yrotation Zrotation
							End Site
							{
								OFFSET 0 0 0
							}
						}
					}
				}
			}
		}
	}
	JOINT RightUpLeg_virtual
	{
		OFFSET 0.000000 0.000000 0.000000
		CHANNELS 3 Xrotation Yrotation Zrotation
		JOINT RightUpLeg
		{
			OFFSET -15.569500 -6.655098 0.678600
			CHANNELS 3 Xrotation Yrotation Zrotation
			JOINT RightLeg
			{
				OFFSET -4.081825 -39.591045 13.023800
				CHANNELS 3 Xrotation Yrotation Zrotation
				JOINT RightFoot
				{
					OFFSET 4.081824 -37.707954 -15.979600
					CHANNELS 3 Xrotation Yrotation Zrotation
					JOINT RightToeBase
					{
						OFFSET -5.346400 -15.068900 20.645000
						CHANNELS 3 Xrotation Yrotation Zrotation
						JOINT RightToe_End
						{
							OFFSET -2.754700 0.931300 11.300900
							CHANNELS 3 Xrotation Yrotation Zrotation
							End Site
							{
								OFFSET 0 0 0
							}
						}
					}
				}
			}
		}
	}
	JOINT Spine_virtual
	{
		OFFSET 0.000000 0.000000 0.000000
		CHANNELS 3 Xrotation Yrotation Zrotation
		JOINT Spine
		{
			OFFSET -0.279200 12.230698 -2.892100
			CHANNELS 3 Xrotation Yrotation Zrotation
			JOINT Spine1
			{
				OFFSET -0.232667 10.192268 -1.242267
				CHANNELS 3 Xrotation Yrotation Zrotation
				JOINT Spine1_split
				{
					OFFSET -0.232667 10.192268 -1.242267
					CHANNELS 3 Xrotation Yrotation Zrotation
					JOINT Spine2
					{
						OFFSET -0.232667 10.192268 -1.242267
						CHANNELS 3 Xrotation Yrotation Zrotation
						JOINT Neck_virtual
						{
							OFFSET 0.000000 0.000000 0.000000
							CHANNELS 3 Xrotation Yrotation Zrotation
							JOINT Neck
							{
								OFFSET -0.418800 17.814194 8.416900
								CHANNELS 3 Xrotation Yrotation Zrotation
								JOINT Head
								{
									OFFSET 0.000000 7.031097 3.806800
									CHANNELS 3 Xrotation Yrotation Zrotation
									JOINT HeadTop_End
									{
										OFFSET 0.000000 24.646606 12.978600
										CHANNELS 3 Xrotation Yrotation Zrotation
										End Site
										{
											OFFSET 0 0 0
										}
									}
								}
							}
						}
						JOINT LeftShoulder_virtual
						{
							OFFSET 0.000000 0.000000 0.000000
							CHANNELS 3 Xrotation Yrotation Zrotation
							JOINT LeftShoulder
							{
								OFFSET 8.476499 7.247704 -3.868750
								CHANNELS 3 Xrotation Yrotation Zrotation
								JOINT LeftShoulder_split
								{
									OFFSET 8.476499 7.247704 -3.868750
									CHANNELS 3 Xrotation Yrotation Zrotation
									JOINT LeftArm
									{
										OFFSET 9.308998 -2.777710 0.208600
										CHANNELS 3 Xrotation Yrotation Zrotation
										JOINT LeftForeArm
										{
											OFFSET 29.972298 0.000000 0.000000
											CHANNELS 3 Xrotation Yrotation Zrotation
											JOINT LeftHand
											{
												OFFSET 26.026505 0.000000 0.000000
												CHANNELS 3 Xrotation Yrotation Zrotation
												End Site
												{
													OFFSET 0 0 0
												}
											}
										}
									}
								}
							}
						}
						JOINT RightShoulder_virtual
						{
							OFFSET 0.000000 0.000000 0.000000
							CHANNELS 3 Xrotation Yrotation Zrotation
							JOINT RightShoulder
							{
								OFFSET -7.570500 7.247704 -3.868750
								CHANNELS 3 Xrotation Yrotation Zrotation
								JOINT RightShoulder_split
								{
									OFFSET -7.570500 7.247704 -3.868750
									CHANNELS 3 Xrotation Yrotation Zrotation
									JOINT RightArm
									{
										OFFSET -9.308998 -2.777710 0.208500
										CHANNELS 3 Xrotation Yrotation Zrotation
										JOINT RightForeArm
										{
											OFFSET -29.972300 0.000000 0.000000
											CHANNELS 3 Xrotation Yrotation Zrotation
											JOINT RightHand
											{
												OFFSET -26.026505 0.000000 0.000000
												CHANNELS 3 Xrotation Yrotation Zrotation
												End Site
												{
													OFFSET 0 0 0
												}
											}
										}
									}
								}
							}
						}
					}
				}
			}
		}
	}
}
MOTION
Frames: 4
Frame Time: 0.03333333
4.110626 13.925297 -2.503174 0.000000 0.000000 0.000000 80.953034 3.294153 -2.288903 3.011372 11.678696 20.175073 21.701010 21.755199 6.528451 31.863423 26.962303 -17.228809 -1.116308 2.015424 12.488532 0.000000 0.000000 0.000000 82.750706 -1.037089 -0.989271 -3.249632 -6.238286 -21.990124 5.400863 -8.548190 2.093734 44.549028 -16.965657 24.652839 15.741986 -1.419869 -9.158462 0.000000 0.000000 0.000000 86.140809 -1.252387 0.956527 2.714309 0.192693 -1.821832 0.832175 0.468767 -0.033842 0.405823 -0.925629 0.547710 0.000000 0.000000 0.000000 -0.499757 0.295446 -0.288669 -4.431190 -12.405232 5.477183 -19.120512 -56.049137 -20.023232 0.000000 0.000000 0.000000 0.533442 0.246247 -0.367547 3.413153 -17.729699 -2.970628 -1.187758 -0.613858 -1.440532 22.670113 -19.972264 -56.737514 0.215221 -24.751735 -0.876778 0.000000 0.000000 0.000000 0.297913 0.679770 0.172696 -0.235757 12.343070 11.335268 7.059507 6.098468 -2.567017 7.428835 -9.474496 55.395802 0.526057 28.507780 1.099230 0.000000 0.000000 0.000000 
4.110697 13.922245 -2.506176 0.000000 0.000000 0.000000 80.953622 3.292220 -2.287064 3.011075 11.676379 20.172412 21.709405 21.756065 6.520492 31.869096 26.973273 -17.219078 -1.118528 2.017348 12.486339 0.000000 0.000000 0.000000 82.747831 -1.034594 -0.992713 -3.251836 -6.237167 -21.991884 5.414910 -8.543077 2.087098 44.541569 -16.954777 24.668666 15.742022 -1.418642 -9.164307 0.000000 0.000000 0.000000 86.139272 -1.253919 0.963266 2.712080 0.192475 -1.819081 0.835180 0.467358 -0.032485 0.395746 -0.924928 0.543092 0.000000 0.000000 0.000000 -0.495779 0.295769 -0.289165 -4.433794 -12.395443 5.471189 -19.117273 -56.035736 -20.026456 0.000000 0.000000 0.000000 0.541926 0.244441 -0.366767 3.417415 -17.749218 -2.957080 -1.191562 -0.588294 -1.445203 22.676214 -19.971318 -56.736483 0.218031 -24.720307 -0.870151 0.000000 0.000000 0.000000 0.300235 0.678626 0.174586 -0.237318 12.340868 11.328110 7.065510 6.122513 -2.572207 7.410551 -9.452989 55.383238 0.540975 28.540266 1.090157 0.000000 0.000000 0.000000 
4.108866 13.919678 -2.511707 0.000000 0.000000 0.000000 80.952297 3.291967 -2.290018 2.999666 11.681866 20.178530 21.726031 21.756540 6.515805 31.891502 26.976788 -17.222192 -1.125192 2.019631 12.481661 0.000000 0.000000 0.000000 82.744484 -1.035274 -0.997147 -3.245795 -6.225395 -21.988168 5.433229 -8.544260 2.074365 44.531887 -16.947072 24.692990 15.767309 -1.418138 -9.150239 0.000000 0.000000 0.000000 86.139559 -1.256622 0.971860 2.709890 0.194761 -1.811207 0.840513 0.465936 -0.031298 0.387622 -0.928090 0.539814 0.000000 0.000000 0.000000 -0.492199 0.294544 -0.288049 -4.433885 -12.378583 5.461017 -19.091169 -56.031358 -20.025105 0.000000 0.000000 0.000000 0.550942 0.242112 -0.368271 3.421741 -17.792086 -2.950435 -1.198734 -0.575437 -1.450923 22.697441 -19.973642 -56.719342 0.202237 -24.668640 -0.877160 0.000000 0.000000 0.000000 0.305870 0.677264 0.175257 -0.237911 12.342433 11.321901 7.081724 6.146436 -2.583160 7.379957 -9.462496 55.383347 0.566526 28.553720 1.078104 0.000000 0.000000 0.000000 
4.105195 13.917610 -2.517166 0.000000 0.000000 0.000000 80.950869 3.294485 -2.299354 2.975479 11.697432 20.194846 21.747071 21.756757 6.512887 31.925366 26.971526 -17.236674 -1.134261 2.021784 12.476618 0.000000 0.000000 0.000000 82.741793 -1.036189 -1.005050 -3.235682 -6.204130 -21.980348 5.457988 -8.550878 2.056424 44.520351 -16.941736 24.726941 15.815935 -1.418060 -9.120841 0.000000 0.000000 0.000000 86.141410 -1.261493 0.978657 2.709507 0.198912 -1.799434 0.847303 0.465099 -0.030500 0.388562 -0.941733 0.544419 0.000000 0.000000 0.000000 -0.489844 0.292306 -0.285956 -4.431171 -12.359172 5.451068 -19.049020 -56.036088 -20.020142 0.000000 0.000000 0.000000 0.558673 0.239800 -0.371755 3.426708 -17.856497 -2.947748 -1.202544 -0.571297 -1.462859 22.732172 -19.967629 -56.684525 0.174581 -24.629379 -0.895081 0.000000 0.000000 0.000000 0.313203 0.676418 0.174618 -0.238633 12.345237 11.319667 7.107002 6.170318 -2.594257 7.338650 -9.512312 55.390485 0.597115 28.535981 1.064063 0.000000 0.000000 0.000000 
